HIERARCHY
ROOT mixamorig:Hips
{
	OFFSET 0.000000 201.639420 0.000000
	CHANNELS 6 Xposition Yposition Zposition Xrotation Yrotation Zrotation
	JOINT mixamorig:Spine
	{
		OFFSET 0.006200 19.524994 -2.481800
		CHANNELS 3 Xrotation Yrotation Zrotation
		JOINT mixamorig:Spine1
		{
			OFFSET -0.000900 22.835007 -2.825400
			CHANNELS 3 Xrotation Yrotation Zrotation
			JOINT mixamorig:Spine2
			{
				OFFSET -0.020600 26.552490 -3.193300
				CHANNELS 3 Xrotation Yrotation Zrotation
				JOINT mixamorig:Neck
				{
					OFFSET -0.060000 30.701813 1.352200
					CHANNELS 3 Xrotation Yrotation Zrotation
					JOINT mixamorig:Head
					{
						OFFSET -0.087200 22.547607 3.670900
						CHANNELS 3 Xrotation Yrotation Zrotation
						JOINT mixamorig:HeadTop_End
						{
							OFFSET -0.830600 40.355194 7.893500
							CHANNELS 3 Xrotation Yrotation Zrotation
							End Site
							{
								OFFSET 0.000000 30.592346 0.000000
							}
						}
						JOINT mixamorig:RightEye
						{
							OFFSET -6.302100 18.118591 16.197100
							CHANNELS 3 Xrotation Yrotation Zrotation
							End Site
							{
								OFFSET 0.000000 30.592346 0.000000
							}
						}
						JOINT mixamorig:LeftEye
						{
							OFFSET 6.741500 18.382690 16.401899
							CHANNELS 3 Xrotation Yrotation Zrotation
							End Site
							{
								OFFSET 0.000000 30.592346 0.000000
							}
						}
					}
				}
				JOINT mixamorig:LeftShoulder
				{
					OFFSET 11.924900 18.230499 1.425400
					CHANNELS 3 Xrotation Yrotation Zrotation
					JOINT mixamorig:LeftArm
					{
						OFFSET 25.435989 -0.697632 -5.229300
						CHANNELS 3 Xrotation Yrotation Zrotation
						JOINT mixamorig:LeftForeArm
						{
							OFFSET 54.684776 0.000000 0.000000
							CHANNELS 3 Xrotation Yrotation Zrotation
							JOINT mixamorig:LeftHand
							{
								OFFSET 55.098175 0.000000 0.000000
								CHANNELS 3 Xrotation Yrotation Zrotation
								JOINT mixamorig:LeftHandMiddle1
								{
									OFFSET 23.369751 0.000000 0.000000
									CHANNELS 3 Xrotation Yrotation Zrotation
									JOINT mixamorig:LeftHandMiddle2
									{
										OFFSET 6.378677 0.000000 0.000000
										CHANNELS 3 Xrotation Yrotation Zrotation
										JOINT mixamorig:LeftHandMiddle3
										{
											OFFSET 6.148331 0.000000 0.000000
											CHANNELS 3 Xrotation Yrotation Zrotation
											JOINT mixamorig:LeftHandMiddle4
											{
												OFFSET 6.582504 0.000000 0.000000
												CHANNELS 3 Xrotation Yrotation Zrotation
												End Site
												{
													OFFSET -1.168900 6.395691 1.028606
												}
											}
										}
									}
								}
								JOINT mixamorig:LeftHandThumb1
								{
									OFFSET 7.235672 -3.848206 5.434273
									CHANNELS 3 Xrotation Yrotation Zrotation
									JOINT mixamorig:LeftHandThumb2
									{
										OFFSET 6.568451 -3.792297 3.792300
										CHANNELS 3 Xrotation Yrotation Zrotation
										JOINT mixamorig:LeftHandThumb3
										{
											OFFSET 6.063080 -3.500519 3.500518
											CHANNELS 3 Xrotation Yrotation Zrotation
											JOINT mixamorig:LeftHandThumb4
											{
												OFFSET 4.793182 -2.767334 2.767349
												CHANNELS 3 Xrotation Yrotation Zrotation
												End Site
												{
													OFFSET 0.101639 6.054260 1.275483
												}
											}
										}
									}
								}
								JOINT mixamorig:LeftHandIndex1
								{
									OFFSET 23.101074 -0.309540 4.992809
									CHANNELS 3 Xrotation Yrotation Zrotation
									JOINT mixamorig:LeftHandIndex2
									{
										OFFSET 6.226883 0.000000 0.000000
										CHANNELS 3 Xrotation Yrotation Zrotation
										JOINT mixamorig:LeftHandIndex3
										{
											OFFSET 6.094330 0.000000 0.000000
											CHANNELS 3 Xrotation Yrotation Zrotation
											JOINT mixamorig:LeftHandIndex4
											{
												OFFSET 5.482605 0.000000 0.000000
												CHANNELS 3 Xrotation Yrotation Zrotation
												End Site
												{
													OFFSET -1.427902 5.233032 0.797164
												}
											}
										}
									}
								}
								JOINT mixamorig:LeftHandRing1
								{
									OFFSET 22.299240 0.021149 -3.964172
									CHANNELS 3 Xrotation Yrotation Zrotation
									JOINT mixamorig:LeftHandRing2
									{
										OFFSET 6.321869 0.000000 0.000000
										CHANNELS 3 Xrotation Yrotation Zrotation
										JOINT mixamorig:LeftHandRing3
										{
											OFFSET 5.899796 0.000000 0.000000
											CHANNELS 3 Xrotation Yrotation Zrotation
											JOINT mixamorig:LeftHandRing4
											{
												OFFSET 6.517899 0.000000 0.000000
												CHANNELS 3 Xrotation Yrotation Zrotation
												End Site
												{
													OFFSET -1.637299 6.232208 0.980890
												}
											}
										}
									}
								}
								JOINT mixamorig:LeftHandPinky1
								{
									OFFSET 20.463791 -0.302338 -8.562233
									CHANNELS 3 Xrotation Yrotation Zrotation
									JOINT mixamorig:LeftHandPinky2
									{
										OFFSET 6.908646 0.000000 0.000000
										CHANNELS 3 Xrotation Yrotation Zrotation
										JOINT mixamorig:LeftHandPinky3
										{
											OFFSET 4.622849 0.000000 0.000000
											CHANNELS 3 Xrotation Yrotation Zrotation
											JOINT mixamorig:LeftHandPinky4
											{
												OFFSET 5.216080 0.000000 0.000000
												CHANNELS 3 Xrotation Yrotation Zrotation
												End Site
												{
													OFFSET -0.606308 5.116241 0.814926
												}
											}
										}
									}
								}
							}
						}
					}
				}
				JOINT mixamorig:RightShoulder
				{
					OFFSET -12.001300 18.284088 1.348900
					CHANNELS 3 Xrotation Yrotation Zrotation
					JOINT mixamorig:RightArm
					{
						OFFSET -25.308500 -0.751312 -5.164599
						CHANNELS 3 Xrotation Yrotation Zrotation
						JOINT mixamorig:RightForeArm
						{
							OFFSET -54.684429 0.000000 0.000000
							CHANNELS 3 Xrotation Yrotation Zrotation
							JOINT mixamorig:RightHand
							{
								OFFSET -55.150291 0.000000 0.000000
								CHANNELS 3 Xrotation Yrotation Zrotation
								JOINT mixamorig:RightHandMiddle1
								{
									OFFSET -23.317566 0.000000 0.000000
									CHANNELS 3 Xrotation Yrotation Zrotation
									JOINT mixamorig:RightHandMiddle2
									{
										OFFSET -6.378403 0.000000 0.000000
										CHANNELS 3 Xrotation Yrotation Zrotation
										JOINT mixamorig:RightHandMiddle3
										{
											OFFSET -6.148193 0.000000 0.000000
											CHANNELS 3 Xrotation Yrotation Zrotation
											JOINT mixamorig:RightHandMiddle4
											{
												OFFSET -6.583389 0.000000 0.000000
												CHANNELS 3 Xrotation Yrotation Zrotation
												End Site
												{
													OFFSET 1.171692 6.395905 1.029786
												}
											}
										}
									}
								}
								JOINT mixamorig:RightHandThumb1
								{
									OFFSET -7.190521 -3.860474 5.435846
									CHANNELS 3 Xrotation Yrotation Zrotation
									JOINT mixamorig:RightHandThumb2
									{
										OFFSET -6.567429 -3.791718 3.791708
										CHANNELS 3 Xrotation Yrotation Zrotation
										JOINT mixamorig:RightHandThumb3
										{
											OFFSET -6.062469 -3.500153 3.500166
											CHANNELS 3 Xrotation Yrotation Zrotation
											JOINT mixamorig:RightHandThumb4
											{
												OFFSET -4.792618 -2.767029 2.767022
												CHANNELS 3 Xrotation Yrotation Zrotation
												End Site
												{
													OFFSET -0.100327 6.053253 1.276754
												}
											}
										}
									}
								}
								JOINT mixamorig:RightHandIndex1
								{
									OFFSET -23.048981 -0.310791 4.992554
									CHANNELS 3 Xrotation Yrotation Zrotation
									JOINT mixamorig:RightHandIndex2
									{
										OFFSET -6.227539 0.000000 0.000000
										CHANNELS 3 Xrotation Yrotation Zrotation
										JOINT mixamorig:RightHandIndex3
										{
											OFFSET -6.095047 0.000000 0.000000
											CHANNELS 3 Xrotation Yrotation Zrotation
											JOINT mixamorig:RightHandIndex4
											{
												OFFSET -5.484772 0.000000 0.000000
												CHANNELS 3 Xrotation Yrotation Zrotation
												End Site
												{
													OFFSET 1.420593 5.237305 0.797056
												}
											}
										}
									}
								}
								JOINT mixamorig:RightHandRing1
								{
									OFFSET -22.246323 0.020569 -3.963762
									CHANNELS 3 Xrotation Yrotation Zrotation
									JOINT mixamorig:RightHandRing2
									{
										OFFSET -6.322128 0.000000 0.000000
										CHANNELS 3 Xrotation Yrotation Zrotation
										JOINT mixamorig:RightHandRing3
										{
											OFFSET -5.900024 0.000000 0.000000
											CHANNELS 3 Xrotation Yrotation Zrotation
											JOINT mixamorig:RightHandRing4
											{
												OFFSET -6.518356 0.000000 0.000000
												CHANNELS 3 Xrotation Yrotation Zrotation
												End Site
												{
													OFFSET 1.636398 6.232697 0.982186
												}
											}
										}
									}
								}
								JOINT mixamorig:RightHandPinky1
								{
									OFFSET -20.411011 -0.303314 -8.561701
									CHANNELS 3 Xrotation Yrotation Zrotation
									JOINT mixamorig:RightHandPinky2
									{
										OFFSET -6.907349 0.000000 0.000000
										CHANNELS 3 Xrotation Yrotation Zrotation
										JOINT mixamorig:RightHandPinky3
										{
											OFFSET -4.623840 0.000000 0.000000
											CHANNELS 3 Xrotation Yrotation Zrotation
											JOINT mixamorig:RightHandPinky4
											{
												OFFSET -5.218353 0.000000 0.000000
												CHANNELS 3 Xrotation Yrotation Zrotation
												End Site
												{
													OFFSET 0.602097 5.118835 0.816273
												}
											}
										}
									}
								}
							}
						}
					}
				}
			}
		}
	}
	JOINT mixamorig:LeftUpLeg
	{
		OFFSET 18.168400 -13.561905 -0.039000
		CHANNELS 3 Xrotation Yrotation Zrotation
		JOINT mixamorig:LeftLeg
		{
			OFFSET 0.577358 -80.825211 -3.695000
			CHANNELS 3 Xrotation Yrotation Zrotation
			JOINT mixamorig:LeftFoot
			{
				OFFSET -0.577356 -83.370262 -6.520700
				CHANNELS 3 Xrotation Yrotation Zrotation
				JOINT mixamorig:LeftToeBase
				{
					OFFSET 0.750401 -20.798306 25.135401
					CHANNELS 3 Xrotation Yrotation Zrotation
					JOINT mixamorig:LeftToe_End
					{
						OFFSET -0.000500 0.001200 19.917799
						CHANNELS 3 Xrotation Yrotation Zrotation
						End Site
						{
							OFFSET 0.000000 19.917805 0.000000
						}
					}
				}
			}
		}
	}
	JOINT mixamorig:RightUpLeg
	{
		OFFSET -18.162500 -13.585098 -0.041000
		CHANNELS 3 Xrotation Yrotation Zrotation
		JOINT mixamorig:RightLeg
		{
			OFFSET -0.595024 -80.945297 -3.631900
			CHANNELS 3 Xrotation Yrotation Zrotation
			JOINT mixamorig:RightFoot
			{
				OFFSET 0.595024 -83.218193 -6.561200
				CHANNELS 3 Xrotation Yrotation Zrotation
				JOINT mixamorig:RightToeBase
				{
					OFFSET -0.753601 -20.807106 25.115000
					CHANNELS 3 Xrotation Yrotation Zrotation
					JOINT mixamorig:RightToe_End
					{
						OFFSET 0.000299 0.001700 19.918200
						CHANNELS 3 Xrotation Yrotation Zrotation
						End Site
						{
							OFFSET 0.000000 19.918203 0.000000
						}
					}
				}
			}
		}
	}
}
MOTION
Frames: 5
Frame Time: 0.033333
19.074017 167.787033 12.743965 32.533479 -1.828322 7.415577 7.631768 0.562680 -2.841661 18.670783 1.912216 -2.977248 19.555603 1.555000 -3.057986 -22.581037 1.162221 3.454929 -30.061196 -2.747213 -3.637425 -0.000000 -0.000000 -0.000000 -0.000000 -0.000000 -0.000000 -0.000000 -0.000000 -0.000000 -7.912793 -25.898418 4.125494 -3.862656 -27.051576 5.953560 -43.793404 -48.189099 -39.148834 -54.499681 -19.679291 -16.015472 0.725581 10.424638 -55.263583 4.932483 5.384296 -84.978058 0.286591 1.738947 -18.715941 -0.000000 0.000006 0.000000 10.505422 1.546913 -34.871842 -2.435373 34.699448 7.479411 -0.616916 28.993566 5.964202 0.000000 -0.000001 0.000003 0.725576 10.424639 -55.263569 5.278611 5.403446 -88.658663 0.035685 1.606370 -34.783715 -0.000000 -0.000002 -0.000001 -1.129590 9.154437 -55.158729 4.932502 5.384307 -84.978065 0.286589 1.738947 -18.715938 -0.000001 0.000000 0.000001 -14.491758 2.722259 -62.056544 2.377366 4.479501 -55.894508 3.243605 4.955166 -66.397895 0.000002 -0.000001 -0.000000 -1.999061 37.430154 -4.381221 -12.091194 9.895196 -18.873614 -78.719788 49.406846 53.362072 -6.903215 23.998409 38.580706 0.725585 -10.424639 55.263569 5.278600 -5.403450 88.658642 0.701250 -2.665438 29.474951 0.000004 -0.000000 -0.000003 10.712947 -1.732705 32.748568 7.473352 -34.633738 -1.613826 6.456037 -28.215725 -3.183839 -0.000001 -0.000001 0.000000 12.057533 6.149968 55.692072 3.439298 -5.253676 84.980865 -0.169338 -0.574415 24.040345 -0.000002 -0.000002 0.000003 -1.129607 -9.154429 55.158740 4.932512 -5.384311 84.978065 0.286580 -1.738927 18.715936 0.000000 0.000000 0.000002 -14.491747 -2.722247 62.056531 1.988517 -4.216996 55.909336 2.812953 -4.767716 66.405688 -0.000001 -0.000000 -0.000000 -81.612503 -8.940058 6.646802 58.509320 19.501488 -6.151463 -4.125422 -5.263482 -12.377177 -4.607255 -12.912817 -1.544772 0.000001 0.000000 0.000000 -79.413728 3.539408 -35.797749 58.049805 13.244377 6.912922 -7.845856 0.717488 5.455658 -17.394332 6.767592 14.784132 -0.000000 -0.000000 0.000000 
18.833031 166.989212 12.232903 33.072609 -1.011047 7.664466 7.703641 0.576898 -2.851410 18.662131 2.009971 -2.962527 19.438508 1.657575 -3.042368 -22.922378 1.409670 3.703203 -29.854381 -3.185706 -3.870385 -0.000001 0.000000 0.000000 -0.000001 0.000000 0.000000 -0.000001 0.000000 0.000000 -7.705855 -26.344306 4.449825 -6.454103 -26.404249 6.487653 -43.272612 -49.198819 -39.353026 -54.632071 -19.597332 -15.548304 0.755887 10.423887 -54.784958 4.864007 5.377867 -84.247815 0.276089 1.707650 -18.366742 -0.000001 -0.000001 0.000000 10.908469 1.594399 -34.759727 -2.517491 34.482248 7.656926 -0.810748 28.724589 6.197960 0.000003 0.000001 0.000001 0.755885 10.423897 -54.784961 5.209834 5.401410 -87.928406 0.026017 1.573552 -34.434686 0.000001 0.000003 -0.000000 -1.096526 9.132839 -54.681883 4.864010 5.377880 -84.247836 0.276098 1.707649 -18.366744 -0.000000 -0.000004 0.000001 -14.397346 2.576511 -61.576382 2.339291 4.453546 -55.405333 3.201370 4.936550 -65.908061 -0.000002 -0.000003 0.000000 -2.342685 35.666329 -4.571360 -11.470530 8.722076 -20.055992 -80.956361 49.382356 54.465708 -5.822950 21.355461 37.833490 0.755909 -10.423904 54.784985 5.209848 -5.401431 87.928379 0.685089 -2.636649 29.125323 0.000002 0.000000 -0.000000 11.113999 -1.795083 32.637762 7.406735 -34.443080 -1.810693 6.370199 -27.958368 -3.405303 -0.000003 0.000000 0.000001 12.224534 6.058672 55.227786 3.119504 -5.202922 84.252159 -0.172750 -0.540354 23.691522 0.000003 -0.000001 -0.000001 -1.096530 -9.132828 54.681883 4.864031 -5.377881 84.247822 0.276093 -1.707633 18.366742 0.000002 0.000004 -0.000002 -14.397334 -2.576499 61.576389 1.960124 -4.192842 55.420196 2.780625 -4.749121 65.915970 0.000000 0.000001 -0.000000 -82.873130 -9.220060 5.621842 58.778764 19.646124 -5.927779 -3.856706 -5.020752 -12.702124 -4.577627 -12.913133 -1.534521 -0.000000 -0.000000 0.000000 -80.404331 4.251549 -36.384728 59.219195 11.574914 6.997320 -8.588980 1.608626 5.669809 -17.477175 6.718632 14.870596 0.000000 -0.000001 0.000000 
18.453424 166.140274 12.053329 33.053888 -0.489447 7.773606 7.847415 0.578532 -2.804004 18.753329 2.071898 -2.868615 19.416889 1.718667 -2.944145 -22.917516 1.952613 3.345308 -29.665151 -3.408515 -4.353687 0.000001 0.000000 -0.000000 0.000001 0.000000 -0.000000 0.000001 0.000000 -0.000000 -7.420939 -27.131560 4.516398 -7.062755 -26.535748 7.749482 -42.790568 -50.167295 -39.649275 -54.726805 -19.541000 -15.215985 0.792428 10.417463 -54.048124 4.777663 5.368519 -83.325692 0.264205 1.671404 -17.963343 -0.000001 0.000001 0.000001 11.404523 1.629518 -34.623086 -2.634332 34.190817 7.904061 -1.027910 28.367148 6.462851 0.000004 -0.000001 0.000003 0.792430 10.417464 -54.048124 5.123050 5.397591 -87.006160 0.015076 1.535557 -34.031476 -0.000000 0.000001 -0.000000 -1.053943 9.095168 -53.948031 4.777677 5.368523 -83.325712 0.264197 1.671393 -17.963333 0.000000 -0.000002 -0.000001 -14.281589 2.401443 -60.993671 2.293382 4.421630 -54.812241 3.150370 4.913525 -65.314107 -0.000001 0.000001 0.000002 -2.320187 34.894098 -4.787761 -11.433088 8.005357 -20.731154 -82.600763 49.589827 55.131986 -4.754007 18.740019 36.523911 0.792444 -10.417468 54.048127 5.123054 -5.397599 87.006173 0.666618 -2.603282 28.721417 0.000005 0.000000 0.000002 11.608466 -1.848529 32.502872 7.324627 -34.188314 -2.075763 6.255194 -27.617721 -3.671200 -0.000004 0.000001 0.000002 12.469602 5.920483 54.512559 2.732619 -5.130286 83.332597 -0.176408 -0.500992 23.288560 0.000001 0.000000 -0.000004 -1.053961 -9.095159 53.948034 4.777665 -5.368528 83.325699 0.264189 -1.671413 17.963333 -0.000003 0.000001 0.000000 -14.281605 -2.401435 60.993644 1.925974 -4.163350 54.827168 2.741582 -4.726323 65.322153 -0.000001 -0.000000 0.000001 -83.555617 -9.435298 5.083484 59.462678 19.455937 -5.842028 -3.946061 -4.763159 -13.027079 -4.644570 -12.912304 -1.530179 0.000000 0.000000 -0.000000 -80.851688 4.740267 -36.791685 60.585042 10.295095 7.026210 -9.569401 2.303162 5.810680 -17.561337 6.670523 14.957595 -0.000001 -0.000000 -0.000000 
18.055702 165.841431 12.141800 32.967216 -0.525087 7.685988 8.102146 0.523432 -2.750521 18.975869 1.994330 -2.785095 19.519453 1.638886 -2.854455 -23.761530 2.768042 2.692025 -29.573903 -3.429871 -4.278974 0.000001 0.000000 0.000000 0.000001 0.000000 0.000000 0.000001 0.000000 0.000000 -7.065983 -28.026853 4.453377 -6.857769 -25.724849 8.936367 -44.387729 -52.677708 -42.552102 -54.777236 -19.511752 -15.039759 0.882032 10.440983 -53.039397 4.681918 5.356485 -82.301314 0.251975 1.633226 -17.539188 -0.000001 0.000001 0.000002 11.968464 1.662000 -34.472207 -2.759469 33.854799 8.181003 -1.264103 27.948388 6.754990 0.000000 0.000001 0.000001 0.882029 10.440992 -53.039397 5.026735 5.391705 -85.981659 0.003870 1.495546 -33.607543 0.000001 -0.000003 0.000003 -0.961164 9.071532 -52.942261 4.681930 5.356502 -82.301286 0.251962 1.633219 -17.539198 -0.000001 0.000004 0.000003 -14.146953 2.202661 -60.323821 2.241109 4.384409 -54.131189 3.092121 4.886433 -64.632099 0.000000 -0.000002 -0.000001 -1.723951 35.290522 -5.315429 -12.162456 7.650718 -20.906992 -84.000173 49.737929 55.728142 -4.611159 16.754227 34.803126 0.882030 -10.440999 53.039411 5.026743 -5.391739 85.981638 0.647453 -2.568056 28.296772 0.000003 0.000001 -0.000000 12.170877 -1.901838 32.354217 7.229707 -33.894411 -2.379654 6.122692 -27.219742 -3.972182 -0.000001 -0.000001 -0.000001 12.840638 5.695020 53.541317 2.296874 -5.035561 82.312058 -0.179964 -0.459576 22.864902 -0.000002 -0.000003 0.000002 -0.961181 -9.071523 52.942265 4.681921 -5.356490 82.301280 0.251960 -1.633210 17.539185 0.000001 0.000001 0.000000 -14.146954 -2.202647 60.323835 1.887016 -4.129158 54.146137 2.697026 -4.699784 64.640323 0.000000 -0.000002 -0.000000 -83.627313 -9.643550 5.229502 59.817786 19.202641 -5.826230 -4.090688 -4.547696 -13.245283 -4.809263 -12.910726 -1.527402 -0.000000 -0.000000 -0.000000 -80.895845 4.630452 -36.653408 61.121519 9.738147 7.065075 -10.274526 2.410220 5.727736 -17.641192 6.624769 15.043649 -0.000001 -0.000000 0.000000 
17.647749 166.090622 12.338257 33.023353 -0.647638 7.420004 8.351799 0.430788 -2.779649 19.170099 1.820625 -2.812019 19.585040 1.475606 -2.877309 -25.195215 3.336142 2.531633 -29.510160 -3.387040 -3.612921 0.000001 -0.000000 -0.000000 0.000001 -0.000000 -0.000000 0.000001 -0.000000 -0.000000 -6.631871 -28.782250 4.445753 -6.076849 -25.081626 10.604212 -46.222694 -54.965783 -45.626736 -54.783827 -19.507959 -15.016811 1.017313 10.498837 -51.838728 4.582811 5.342211 -81.238202 0.239205 1.592338 -17.086183 -0.000001 -0.000004 -0.000000 12.581313 1.696913 -34.313040 -2.882413 33.492529 8.469912 -1.514316 27.490912 7.070092 0.000002 -0.000000 0.000002 1.017305 10.498849 -51.838725 4.926890 5.383795 -84.918424 -0.007793 1.452701 -33.154722 0.000000 -0.000000 0.000000 -0.825290 9.069358 -51.744243 4.582823 5.342222 -81.238222 0.239220 1.592339 -17.086193 -0.000000 0.000001 0.000002 -13.996024 1.985672 -59.582322 2.183812 4.342532 -53.378270 3.028096 4.855682 -63.878122 0.000000 -0.000003 -0.000000 -0.906465 36.177504 -5.748224 -12.761366 7.790619 -20.875865 -85.049570 49.726222 56.263079 -4.681304 15.655565 33.431324 1.017320 -10.498831 51.838732 4.926904 -5.383807 84.918410 0.627293 -2.530252 27.843235 0.000000 -0.000001 -0.000001 12.782101 -1.959341 32.197679 7.126331 -33.577268 -2.705607 5.981541 -26.786481 -4.300119 -0.000001 -0.000000 0.000002 13.305407 5.391117 52.393698 1.831683 -4.920191 81.254464 -0.183429 -0.415308 22.412391 0.000002 -0.000002 0.000004 -0.825306 -9.069342 51.744239 4.582813 -5.342218 81.238195 0.239225 -1.592337 17.086210 -0.000002 -0.000001 -0.000000 -13.996057 -1.985676 59.582336 1.844357 -4.090980 53.393238 2.648050 -4.669957 63.886461 -0.000001 0.000000 0.000001 -83.401842 -9.875241 5.538433 59.550589 19.019734 -5.748496 -4.045833 -4.384351 -13.359064 -5.049386 -12.908882 -1.524498 -0.000000 -0.000001 -0.000000 -80.676828 4.162542 -36.156972 60.924481 9.620047 7.020437 -10.735788 1.827098 5.590564 -17.711302 6.582448 15.127085 -0.000001 -0.000001 -0.000000 
